<?xml version="1.0" encoding="UTF-8"?>
<!DOCTYPE svg PUBLIC "-//W3C//DTD SVG 1.1//EN" "http://www.w3.org/Graphics/SVG/1.1/DTD/svg11.dtd">
<!-- Creator: CorelDRAW -->
<svg xmlns="http://www.w3.org/2000/svg" xml:space="preserve" width="200px" height="200px" version="1.1" style="shape-rendering:geometricPrecision; text-rendering:geometricPrecision; image-rendering:optimizeQuality; fill-rule:evenodd; clip-rule:evenodd"
viewBox="0 0 200 200"
 xmlns:xlink="http://www.w3.org/1999/xlink"
 xmlns:xodm="http://www.corel.com/coreldraw/odm/2003">
 <defs>
  <style type="text/css">
   <![CDATA[
    .fil0 {fill:white;fill-rule:nonzero}
    .fil1 {fill:white;fill-rule:nonzero;fill-opacity:0.501961}
   ]]>
  </style>
 </defs>
 <g id="Layer_x0020_1">
  <metadata id="CorelCorpID_0Corel-Layer"/>
  <g id="_105553320910848">
   <path class="fil0" d="M139.636 167.03c12.113,-3.33 24.533,-11.186 25.894,-23.508 16.018,-8.84 28.559,-31.813 16.024,-45.576 -0.139,-0.153 -0.859,0.079 -1.005,-0.072 0.108,-0.085 0.791,-0.557 0.895,-0.644 16.805,-14.009 0.698,-44.74 -14.624,-46.589 -0.184,-0.022 -1.726,1.097 -1.911,1.083 0.04,-0.188 1.434,-1.512 1.467,-1.699 3.68,-20.48 -27.524,-37.68 -44.068,-29.591 -13.989,-14.416 -41.624,-10.781 -52.172,0.798 -0.279,0.307 -0.254,2.137 -0.51,2.455 -0.441,-0.017 -1.174,-1.545 -1.61,-1.552 -20.806,-0.36 -35.878,10.299 -38.899,30.981 -14.852,7.004 -22.683,22.828 -14.245,48.305 -4.655,9.579 2.488,25.286 13.97,39.842 -3.873,-4.54 -6.856,-10.017 -8.862,-15.302 -2.577,-6.798 -4.539,-16.312 -2.393,-23.421l0.102 -0.348 -0.079 -0.348c-2.111,-8.767 -3.103,-18.892 -0.471,-27.62 2.161,-7.164 6.512,-12.757 13.524,-16.225l0.503 -0.246 0.192 -0.514c2.715,-7.197 6.849,-13.496 13.275,-18.144 7.58,-5.487 16.5,-6.539 25.839,-7.057l1.509 0.859 0.388 -1.535c7.349,-4.616 14.763,-8.434 23.646,-8.625 9.054,-0.2 17.322,2.762 24.797,7.497l0.366 0.231 0.445 0c8.746,-0.065 17.604,1.474 25,6.165 7.109,4.506 11.006,11.999 14.321,18.719 0.066,0.135 -0.94,1.185 -0.887,1.332 0.209,0.135 1.482,-0.587 1.69,-0.451 7.449,4.868 13.703,11.197 16.305,19.641 2.323,7.554 1.269,15.312 -1.341,22.664 -0.091,0.256 -1.373,0.657 -1.466,0.912 0.085,0.242 1.36,0.338 1.445,0.581 2.752,7.891 3.823,16.308 1.282,24.402 -2.534,8.091 -8.185,14.353 -15.265,19.237l-0.359 0.242 -0.152 0.402c-2.939,7.631 -8.134,14.248 -15.099,19.031 -1.709,1.172 -5.615,2.809 -7.461,3.688l0 0 0 0z"/>
   <path class="fil0" d="M69.788 35.135c-17.68,1.039 -29.094,8.055 -35.038,24.218 -0.159,0.445 11.103,10.871 10.864,11.146 -0.29,0.329 -12.134,-9.517 -12.656,-9.26 -15.084,7.356 -14.61,26.021 -11.265,39.842 0.177,0.742 9.701,2.096 9.701,2.324 0,0.26 -9.545,-0.612 -9.799,0.202 -2.335,7.479 0.912,18.593 4.148,25.297 2.556,5.289 6.292,10.741 11.11,14.426 0.681,0.528 6.712,-1.343 6.871,-1.119 0.156,0.228 -5.549,2.574 -5.187,3.388 3.077,6.893 8.236,10.513 13.405,14.223l9.6 -15.497 25.463 -11.091 20.982 17.549 3.024 19.589c4.117,-0.628 7.763,-0.754 11.488,-2.98l-1.516 -5.423 2.44 5.13c17.053,-1.39 28.981,-8.772 34.9,-24.251 0.369,-0.966 -7.063,-5.705 -6.845,-5.936 0.184,-0.196 7.971,4.087 8.695,3.591 14.606,-10.024 18.169,-23.273 12.532,-39.328 -0.427,-1.213 -16.858,1.187 -16.854,0.829 0.01,-0.333 16.442,-3.439 16.851,-4.572 5.781,-16.113 1.43,-28.374 -13.499,-38.039 -0.981,-0.638 -15.892,9.868 -16.098,9.6 -0.181,-0.239 14.302,-11.225 13.969,-12.167 -5.651,-16.062 -18.292,-22.574 -35.679,-22.379 -0.966,0.011 -6.222,13.351 -6.508,13.246 -0.243,-0.09 4.471,-13.597 3.783,-14.039 -15.1,-9.629 -29.315,-9.306 -44.306,0.109 -1.727,1.09 1.676,11.555 2.371,13.543 -1.053,-2.237 -4.188,-12.334 -6.947,-12.171l0 0 0 0zm27.082 63.897c0.847,0.109 1.61,0.449 2.233,0.945 0.243,0.195 4.54,-2.36 4.746,-2.121 0.177,0.22 -3.729,3.246 -3.591,3.496 0.434,0.8 0.633,1.745 0.511,2.719 -0.142,1.097 -0.671,2.056 -1.427,2.751 -0.311,0.286 1.712,5.987 1.339,6.179 -0.416,0.203 -3.247,-5.115 -3.714,-5.046 -0.398,0.058 -0.814,0.065 -1.234,0.015 -1.629,-0.211 -2.943,-1.264 -3.559,-2.665 -0.206,-0.474 -6.617,-0.42 -6.646,-0.959 -0.014,-0.272 6.27,-1.126 6.306,-1.412 0.029,-0.239 0.083,-0.474 0.145,-0.695 0.3,-1.039 0.956,-1.897 1.81,-2.469 0.25,-0.174 -1.187,-5.046 -0.898,-5.158 0.333,-0.138 2.4,4.485 2.769,4.431 0.388,-0.055 0.793,-0.058 1.209,-0.011l0 0 0.001 0z"/>
   <path class="fil0" d="M51.804 166.448l24.265 22.255 32.276 -13.18 -3.562 -23.074 -18.372 -15.371 -22.476 9.792 -12.131 19.578 0 0zm32.772 -14.625l4.218 6.065 -5.359 -4.623 -7.532 2.978 7.232 -4.67 1.68 -5.408 -0.239 5.658 0 0 0 0z"/>
   <polygon class="fil1" points="51.804,166.448 83.435,153.053 108.345,175.523 76.069,188.703 "/>
   <path class="fil0" d="M139.636 167.312c12.113,-3.331 24.533,-11.186 25.894,-23.508 16.018,-8.84 28.559,-31.814 16.024,-45.576 -0.139,-0.153 -0.859,0.079 -1.005,-0.072 0.108,-0.086 0.791,-0.558 0.895,-0.645 16.805,-14.008 0.698,-44.739 -14.624,-46.588 -0.184,-0.022 -1.726,1.096 -1.911,1.083 0.04,-0.188 1.434,-1.512 1.467,-1.699 3.68,-20.48 -27.524,-37.68 -44.068,-29.591 -13.989,-14.416 -41.624,-10.782 -52.172,0.797 -0.279,0.308 -0.254,2.137 -0.51,2.456 -0.441,-0.017 -1.174,-1.545 -1.61,-1.553 -20.806,-0.36 -35.878,10.299 -38.899,30.981 -14.852,7.005 -22.683,22.828 -14.245,48.306 -4.655,9.579 2.488,25.286 13.97,39.842 -3.873,-4.54 -6.856,-10.017 -8.862,-15.302 -2.577,-6.798 -4.539,-16.312 -2.393,-23.422l0.102 -0.347 -0.079 -0.348c-2.111,-8.767 -3.103,-18.893 -0.471,-27.62 2.161,-7.164 6.512,-12.757 13.524,-16.225l0.503 -0.246 0.192 -0.514c2.715,-7.197 6.849,-13.496 13.275,-18.144 7.58,-5.488 16.5,-6.539 25.839,-7.057l1.509 0.858 0.388 -1.535c7.349,-4.615 14.763,-8.433 23.646,-8.624 9.054,-0.2 17.322,2.761 24.797,7.496l0.366 0.232 0.445 0c8.746,-0.065 17.604,1.474 25,6.165 7.109,4.506 11.006,11.998 14.321,18.719 0.066,0.135 -0.94,1.185 -0.887,1.331 0.209,0.136 1.482,-0.586 1.69,-0.45 7.449,4.867 13.703,11.197 16.305,19.641 2.323,7.554 1.269,15.312 -1.341,22.664 -0.091,0.255 -1.373,0.657 -1.466,0.911 0.085,0.243 1.36,0.339 1.445,0.581 2.752,7.892 3.823,16.308 1.282,24.403 -2.534,8.09 -8.185,14.353 -15.265,19.236l-0.359 0.243 -0.152 0.402c-2.939,7.631 -8.134,14.248 -15.099,19.03 -1.709,1.173 -5.615,2.809 -7.461,3.689l0 0 0 0z"/>
   <path class="fil0" d="M69.788 35.417c-17.68,1.039 -29.094,8.054 -35.038,24.217 -0.159,0.446 11.103,10.871 10.864,11.147 -0.29,0.329 -12.134,-9.517 -12.656,-9.26 -15.084,7.355 -14.61,26.02 -11.265,39.841 0.177,0.742 9.701,2.096 9.701,2.324 0,0.261 -9.545,-0.611 -9.799,0.203 -2.335,7.479 0.912,18.593 4.148,25.297 2.556,5.289 6.292,10.741 11.11,14.426 0.681,0.528 6.712,-1.343 6.871,-1.119 0.156,0.228 -5.549,2.574 -5.187,3.388 3.077,6.893 8.236,10.512 13.405,14.223l9.6 -15.497 25.463 -11.092 20.982 17.55 3.024 19.589c4.117,-0.629 7.763,-0.754 11.488,-2.98l-1.516 -5.423 2.44 5.13c17.053,-1.391 28.981,-8.772 34.9,-24.251 0.369,-0.966 -7.063,-5.705 -6.845,-5.937 0.184,-0.195 7.971,4.087 8.695,3.591 14.606,-10.024 18.169,-23.273 12.532,-39.327 -0.427,-1.213 -16.858,1.187 -16.854,0.828 0.01,-0.333 16.442,-3.439 16.851,-4.572 5.781,-16.112 1.43,-28.373 -13.499,-38.039 -0.981,-0.637 -15.892,9.868 -16.098,9.601 -0.181,-0.239 14.302,-11.226 13.969,-12.167 -5.651,-16.062 -18.292,-22.574 -35.679,-22.379 -0.966,0.011 -6.222,13.351 -6.508,13.246 -0.243,-0.091 4.471,-13.597 3.783,-14.039 -15.1,-9.629 -29.315,-9.307 -44.306,0.109 -1.727,1.089 1.676,11.555 2.371,13.543 -1.053,-2.238 -4.188,-12.334 -6.947,-12.171l0 0 0 0zm27.082 63.896c0.847,0.109 1.61,0.45 2.233,0.945 0.243,0.196 4.54,-2.36 4.746,-2.121 0.177,0.221 -3.729,3.247 -3.591,3.497 0.434,0.8 0.633,1.745 0.511,2.719 -0.142,1.097 -0.671,2.056 -1.427,2.751 -0.311,0.286 1.712,5.987 1.339,6.179 -0.416,0.203 -3.247,-5.115 -3.714,-5.046 -0.398,0.058 -0.814,0.065 -1.234,0.014 -1.629,-0.21 -2.943,-1.263 -3.559,-2.664 -0.206,-0.474 -6.617,-0.42 -6.646,-0.959 -0.014,-0.272 6.27,-1.126 6.306,-1.412 0.029,-0.239 0.083,-0.474 0.145,-0.695 0.3,-1.039 0.956,-1.897 1.81,-2.469 0.25,-0.174 -1.187,-5.047 -0.898,-5.159 0.333,-0.137 2.4,4.486 2.769,4.431 0.388,-0.054 0.793,-0.057 1.209,-0.011l0 0 0.001 0z"/>
   <path class="fil0" d="M51.804 166.729l24.265 22.256 32.276 -13.18 -3.562 -23.074 -18.372 -15.371 -22.476 9.792 -12.131 19.577 0 0zm32.772 -14.625l4.218 6.065 -5.359 -4.622 -7.532 2.978 7.232 -4.67 1.68 -5.409 -0.239 5.659 0 0 0 -0.001z"/>
   <polygon class="fil1" points="51.804,166.729 83.435,153.335 108.345,175.805 76.069,188.985 "/>
  </g>
 </g>
</svg>
